<?xml version="1.0" encoding="utf-8"?>
<!-- Generator: Adobe Illustrator 21.1.0, SVG Export Plug-In . SVG Version: 6.00 Build 0)  -->
<!DOCTYPE svg PUBLIC "-//W3C//DTD SVG 1.1//EN" "http://www.w3.org/Graphics/SVG/1.1/DTD/svg11.dtd">
<svg version="1.1" id="Layer_1" xmlns="http://www.w3.org/2000/svg" xmlns:xlink="http://www.w3.org/1999/xlink" x="0px" y="0px"
	 viewBox="0 0 217 97.3" style="enable-background:new 0 0 217 97.3;" xml:space="preserve">
<style type="text/css">
	.st0{fill:#005677;}
	.st1{fill:#FFFFFF;}
	.st2{fill:#77BC1F;}
</style>
<g>
	<rect class="st0" width="217" height="97.3"/>
	<g>
		<path class="st1" d="M29.8,76.3h-6v3.9h6.7v3H20.1V66.9h10v3h-6.3v3.4h6V76.3z"/>
		<path class="st1" d="M32.6,66h3.7v17.1h-3.7V66z"/>
		<path class="st1" d="M41.5,78.4c0.1,1.5,1.6,2.2,3.3,2.2c1.3,0,2.3-0.2,3.3-0.5l0.5,2.5c-1.2,0.5-2.7,0.7-4.3,0.7
			c-4,0-6.3-2.3-6.3-6c0-3,1.9-6.3,6-6.3c3.8,0,5.3,3,5.3,5.9c0,0.6-0.1,1.2-0.1,1.4H41.5z M45.9,75.9c0-0.9-0.4-2.4-2.1-2.4
			c-1.5,0-2.2,1.4-2.3,2.4H45.9z"/>
		<path class="st1" d="M60,82.8c-0.7,0.3-1.9,0.6-3.3,0.6c-3.8,0-6.3-2.3-6.3-6c0-3.5,2.4-6.3,6.8-6.3c1,0,2,0.2,2.8,0.5l-0.6,2.7
			c-0.4-0.2-1.1-0.4-2.1-0.4c-1.9,0-3.2,1.4-3.2,3.3c0,2.1,1.4,3.3,3.2,3.3c0.9,0,1.5-0.1,2.1-0.4L60,82.8z"/>
		<path class="st1" d="M66,68.2v3.2h2.6v2.7H66v4.3c0,1.4,0.4,2.1,1.4,2.1c0.5,0,0.7,0,1.1-0.1l0,2.8c-0.5,0.2-1.4,0.3-2.4,0.3
			c-1.2,0-2.2-0.4-2.8-1c-0.7-0.7-1-1.8-1-3.5v-4.8h-1.6v-2.7h1.6v-2.2L66,68.2z"/>
		<path class="st1" d="M74.2,68.1c0,1-0.7,1.8-2,1.8c-1.2,0-1.9-0.8-1.9-1.8c0-1,0.8-1.8,2-1.8C73.4,66.2,74.2,67,74.2,68.1z
			 M70.4,83.2V71.3h3.7v11.8H70.4z"/>
		<path class="st1" d="M88.2,77.1c0,4.3-3.1,6.3-6.2,6.3c-3.5,0-6.1-2.3-6.1-6.1c0-3.8,2.5-6.3,6.3-6.3
			C85.8,71.1,88.2,73.5,88.2,77.1z M79.6,77.2c0,2,0.8,3.5,2.4,3.5c1.4,0,2.3-1.4,2.3-3.6c0-1.7-0.7-3.5-2.3-3.5
			C80.3,73.7,79.6,75.5,79.6,77.2z"/>
		<path class="st1" d="M89.9,75.1c0-1.5,0-2.7-0.1-3.8H93l0.2,1.6h0.1c0.5-0.8,1.7-1.9,3.6-1.9c2.4,0,4.2,1.6,4.2,5.1v7h-3.7v-6.5
			c0-1.5-0.5-2.6-1.9-2.6c-1,0-1.6,0.7-1.9,1.4c-0.1,0.2-0.1,0.6-0.1,0.9v6.8h-3.7V75.1z"/>
		<path class="st1" d="M103.5,80c0.7,0.4,2.1,0.9,3.2,0.9c1.1,0,1.6-0.4,1.6-1c0-0.6-0.4-0.9-1.7-1.4c-2.5-0.8-3.4-2.1-3.4-3.5
			c0-2.2,1.9-3.9,4.8-3.9c1.4,0,2.6,0.3,3.3,0.7l-0.6,2.5c-0.5-0.3-1.6-0.7-2.6-0.7c-0.9,0-1.4,0.4-1.4,0.9c0,0.6,0.5,0.9,1.9,1.4
			c2.2,0.8,3.2,1.9,3.2,3.6c0,2.2-1.7,3.8-5.1,3.8c-1.5,0-2.9-0.4-3.8-0.8L103.5,80z"/>
		<path class="st1" d="M130.4,82.7c-0.7,0.3-2.2,0.7-4.2,0.7c-5.6,0-8.5-3.5-8.5-8.2c0-5.6,4-8.6,8.9-8.6c1.9,0,3.4,0.4,4,0.7
			l-0.8,2.9c-0.7-0.3-1.8-0.6-3.1-0.6c-2.9,0-5.2,1.8-5.2,5.4c0,3.3,1.9,5.3,5.2,5.3c1.1,0,2.3-0.2,3.1-0.5L130.4,82.7z"/>
		<path class="st1" d="M142,80.3c0,1.1,0,2.2,0.2,2.8h-3.3l-0.2-1.2h-0.1c-0.8,0.9-2,1.4-3.4,1.4c-2.4,0-3.8-1.7-3.8-3.6
			c0-3.1,2.8-4.5,6.9-4.5v-0.1c0-0.7-0.3-1.5-2.1-1.5c-1.2,0-2.5,0.4-3.3,0.9l-0.7-2.4c0.8-0.5,2.4-1.1,4.6-1.1
			c3.9,0,5.2,2.3,5.2,5.1V80.3z M138.5,77.6c-1.9,0-3.4,0.5-3.4,1.9c0,0.9,0.6,1.4,1.4,1.4c0.9,0,1.7-0.6,1.9-1.4
			c0-0.2,0.1-0.4,0.1-0.6V77.6z"/>
		<path class="st1" d="M144.4,66h3.7v17.1h-3.7V66z"/>
		<path class="st1" d="M161.8,81.4c0,2.3-0.5,4.1-1.8,5.3c-1.3,1.1-3,1.4-4.8,1.4c-1.6,0-3.2-0.3-4.2-0.9l0.7-2.8
			c0.7,0.4,2,0.9,3.4,0.9c1.7,0,3.1-0.9,3.1-3.1v-0.7h0c-0.7,1-1.8,1.5-3.2,1.5c-2.9,0-5-2.4-5-5.7c0-3.8,2.4-6.2,5.4-6.2
			c1.6,0,2.6,0.7,3.2,1.7h0l0.1-1.4h3.2c0,0.8-0.1,1.8-0.1,3.5V81.4z M158.1,76.2c0-0.2,0-0.5-0.1-0.7c-0.3-1-1-1.6-2-1.6
			c-1.4,0-2.4,1.2-2.4,3.4c0,1.8,0.9,3.1,2.4,3.1c1,0,1.7-0.6,2-1.5c0.1-0.3,0.1-0.7,0.1-1V76.2z"/>
		<path class="st1" d="M174.1,80.3c0,1.1,0,2.2,0.2,2.8h-3.3l-0.2-1.2h-0.1c-0.8,0.9-2,1.4-3.4,1.4c-2.4,0-3.8-1.7-3.8-3.6
			c0-3.1,2.8-4.5,6.9-4.5v-0.1c0-0.7-0.3-1.5-2.1-1.5c-1.2,0-2.5,0.4-3.3,0.9l-0.7-2.4c0.8-0.5,2.4-1.1,4.6-1.1
			c3.9,0,5.2,2.3,5.2,5.1V80.3z M170.5,77.6c-1.9,0-3.4,0.5-3.4,1.9c0,0.9,0.6,1.4,1.4,1.4c0.9,0,1.7-0.6,1.9-1.4
			c0-0.2,0.1-0.4,0.1-0.6V77.6z"/>
		<path class="st1" d="M176.4,75.2c0-1.7,0-2.9-0.1-3.9h3.1l0.1,2.2h0.1c0.6-1.7,2-2.5,3.2-2.5c0.3,0,0.5,0,0.8,0.1v3.5
			c-0.3,0-0.6-0.1-1-0.1c-1.4,0-2.3,0.7-2.5,1.9c0,0.2-0.1,0.5-0.1,0.8v6h-3.7V75.2z"/>
		<path class="st1" d="M188.4,71.3l1.8,5.8c0.2,0.7,0.4,1.6,0.6,2.2h0.1c0.1-0.7,0.3-1.5,0.5-2.2l1.5-5.8h3.9l-2.8,7.8
			c-1.7,4.7-2.8,6.6-4.2,7.7c-1.3,1.1-2.6,1.5-3.5,1.6l-0.8-3.1c0.5-0.1,1-0.3,1.6-0.6c0.6-0.3,1.2-0.9,1.5-1.5
			c0.1-0.2,0.2-0.4,0.2-0.5c0-0.1,0-0.3-0.1-0.6l-4.3-10.8H188.4z"/>
	</g>
	<g>
		<path class="st1" d="M30.9,57.3L16.3,12h11.2l5.5,19.2c1.5,5.4,3,10.6,4,16.2h0.2c1.1-5.4,2.6-10.8,4.1-16L47.2,12h10.9L42.8,57.3
			H30.9z"/>
		<path class="st1" d="M89.6,40.5c0,12-8.5,17.5-17.3,17.5c-9.6,0-17-6.3-17-16.9c0-10.7,7-17.5,17.6-17.5
			C82.9,23.7,89.6,30.6,89.6,40.5z M65.8,40.9c0,5.6,2.4,9.9,6.7,9.9c4,0,6.5-4,6.5-9.9c0-4.8-1.9-9.8-6.5-9.8
			C67.7,31,65.8,36,65.8,40.9z"/>
		<path class="st1" d="M106.1,15.6v8.9h7.3V32h-7.3v11.9c0,4,1,5.8,4,5.8c1.4,0,2.1-0.1,3-0.3l0.1,7.7c-1.3,0.5-3.8,0.9-6.6,0.9
			c-3.3,0-6-1.1-7.7-2.8C97,53.2,96,50.1,96,45.4V32h-4.4v-7.5H96v-6.1L106.1,15.6z"/>
		<path class="st1" d="M126.9,44.2c0.3,4.2,4.5,6.3,9.3,6.3c3.5,0,6.3-0.5,9.1-1.4l1.3,6.9c-3.4,1.4-7.5,2.1-11.9,2.1
			c-11.2,0-17.5-6.5-17.5-16.7c0-8.3,5.2-17.5,16.6-17.5c10.6,0,14.7,8.3,14.7,16.4c0,1.7-0.2,3.3-0.3,4H126.9z M138.9,37.2
			c0-2.5-1.1-6.7-5.8-6.7c-4.3,0-6,4-6.3,6.7H138.9z"/>
	</g>
	<path class="st1" d="M192.3,59.1h-36.2V22.8h36.2V59.1z M161,54.2h26.5V27.7H161V54.2z"/>
	<path class="st2" d="M182.4,52.8c-0.8,0-1.6-0.3-2.2-0.9l-16.1-16.7c-1.2-1.2-1.1-3.1,0.1-4.3c1.2-1.2,3.1-1.1,4.3,0.1l16.1,16.7
		c1.2,1.2,1.1,3.1-0.1,4.3C184,52.5,183.2,52.8,182.4,52.8z"/>
	<path class="st2" d="M166.3,52.8c-0.8,0-1.5-0.3-2.1-0.9c-1.2-1.2-1.2-3.1-0.1-4.3l16.1-16.7c1.2-1.2,3.1-1.2,4.3-0.1
		c1.2,1.2,1.2,3.1,0.1,4.3l-16.1,16.7C167.9,52.5,167.1,52.8,166.3,52.8z"/>
</g>
</svg>
