<!-- Generated by IcoMoon.io -->
<svg version="1.1" xmlns="http://www.w3.org/2000/svg" width="64" height="64" viewBox="0 0 64 64">
<path fill="#333" d="M39.46 39.42h-7.499c-0.020 0-0.037 0.004-0.057 0.006-0.019 0-0.037-0.006-0.057-0.006h-7.501c-0.43 0-0.779 0.349-0.779 0.779v13.453c0 0.43 0.349 0.779 0.779 0.779s0.779-0.349 0.779-0.779v-12.674h5.946v12.674c0 0.43 0.349 0.779 0.779 0.779 0.020 0 0.037-0.004 0.057-0.006 0.019 0 0.037 0.006 0.057 0.006 0.43 0 0.779-0.349 0.779-0.779v-12.674h5.943v12.674c0 0.43 0.349 0.779 0.779 0.779s0.779-0.349 0.779-0.779v-13.453c0-0.43-0.349-0.779-0.779-0.779z"></path>
<path fill="#333" d="M12.516 35.74h-6.236c-0.43 0-0.779 0.349-0.779 0.779v4.903c0 0.43 0.349 0.779 0.779 0.779h6.236c0.43 0 0.779-0.349 0.779-0.779v-4.903c0-0.43-0.349-0.779-0.779-0.779zM11.739 40.644h-4.68v-3.347h4.68v3.347z"></path>
<path fill="#333" d="M12.516 44.596h-6.236c-0.43 0-0.779 0.349-0.779 0.779v4.903c0 0.43 0.349 0.779 0.779 0.779h6.236c0.43 0 0.779-0.349 0.779-0.779v-4.903c0-0.43-0.349-0.779-0.779-0.779zM11.739 49.499h-4.68v-3.347h4.68v3.347z"></path>
<path fill="#333" d="M57.72 35.74h-6.236c-0.43 0-0.779 0.349-0.779 0.779v4.903c0 0.43 0.349 0.779 0.779 0.779h6.236c0.43 0 0.779-0.349 0.779-0.779v-4.903c0-0.43-0.349-0.779-0.779-0.779zM56.941 40.644h-4.68v-3.347h4.68v3.347z"></path>
<path fill="#333" d="M57.72 44.596h-6.236c-0.43 0-0.779 0.349-0.779 0.779v4.903c0 0.43 0.349 0.779 0.779 0.779h6.236c0.43 0 0.779-0.349 0.779-0.779v-4.903c0-0.43-0.349-0.779-0.779-0.779zM56.941 49.499h-4.68v-3.347h4.68v3.347z"></path>
<path fill="#333" d="M63.221 22.719h-27.444l-3.039-2.296v-1.981c0.38 0.101 0.757 0.144 1.129 0.144 0.97 0 1.906-0.287 2.776-0.553 1.394-0.427 2.6-0.796 3.769-0.080 0.24 0.147 0.541 0.153 0.787 0.016s0.397-0.397 0.397-0.679v-6.42c0-0.27-0.141-0.521-0.371-0.663-1.766-1.081-3.501-0.55-5.034-0.080-1.297 0.397-2.429 0.743-3.52 0.216-0.121-0.271-0.393-0.461-0.71-0.461-0.43 0-0.779 0.349-0.779 0.779v9.891l-2.874 2.173s-0.011-0.001-0.017-0.001h-27.511c-0.43 0-0.779 0.349-0.779 0.779v8.987c0 0.43 0.349 0.779 0.779 0.779h0.789v20.389c0 0.43 0.349 0.779 0.779 0.779s0.779-0.349 0.779-0.779v-20.389h12.729v20.389c0 0.43 0.349 0.779 0.779 0.779s0.779-0.349 0.779-0.779v-20.564c0.116-0.094 0.203-0.219 0.25-0.364l14.389-10.874 14.274 10.789c0.043 0.219 0.179 0.401 0.363 0.513v20.503c0 0.43 0.349 0.779 0.779 0.779s0.779-0.349 0.779-0.779v-20.389h12.643v20.389c0 0.43 0.349 0.779 0.779 0.779s0.779-0.349 0.779-0.779v-20.389h0.786c0.43 0 0.779-0.349 0.779-0.779v-8.987c0-0.43-0.349-0.779-0.779-0.779zM32.793 12.036c1.353 0.343 2.664-0.059 3.853-0.423 1.247-0.381 2.343-0.717 3.394-0.271v4.781c-1.353-0.341-2.664 0.060-3.853 0.423-1.247 0.381-2.343 0.717-3.394 0.271v-4.781zM1.556 24.274h24.697l-9.833 7.431h-14.864v-7.431zM62.444 31.706h-14.776l-9.833-7.431h24.609v7.431z"></path>
<path fill="#333" d="M36.409 30.466c0-2.149-1.749-3.897-3.897-3.897s-3.897 1.749-3.897 3.897 1.749 3.897 3.897 3.897 3.897-1.749 3.897-3.897zM30.17 30.466c0-1.291 1.050-2.341 2.341-2.341s2.341 1.050 2.341 2.341-1.050 2.341-2.341 2.341-2.341-1.050-2.341-2.341z"></path>
</svg>
