<!-- Generated by IcoMoon.io -->
<svg version="1.1" xmlns="http://www.w3.org/2000/svg" width="64" height="64" viewBox="0 0 64 64">
<path fill="#333" d="M31.321 23.673c1.487 0 2.697-1.166 2.697-2.597s-1.21-2.597-2.697-2.597-2.697 1.166-2.697 2.597 1.21 2.597 2.697 2.597zM31.321 20.284c0.491 0 0.891 0.356 0.891 0.791s-0.4 0.791-0.891 0.791-0.891-0.356-0.891-0.791 0.4-0.791 0.891-0.791z"></path>
<path fill="#333" d="M33.317 57.463c0.499 0 0.903-0.404 0.903-0.903v-5.584c0-1.536-1.299-2.784-2.896-2.784s-2.896 1.249-2.896 2.784v5.584c0 0.499 0.404 0.903 0.903 0.903s0.903-0.404 0.903-0.903v-5.584c0-0.54 0.489-0.979 1.090-0.979s1.090 0.439 1.090 0.979v5.584c0 0.499 0.404 0.903 0.903 0.903z"></path>
<path fill="#333" d="M29.786 32.613c0.499 0 0.903-0.404 0.903-0.903v-3.823c0-0.499-0.404-0.903-0.903-0.903s-0.903 0.404-0.903 0.903v3.823c0 0.499 0.404 0.903 0.903 0.903z"></path>
<path fill="#333" d="M29.696 39.246c0.499 0 0.903-0.404 0.903-0.903v-2.567c0-0.499-0.404-0.903-0.903-0.903s-0.903 0.404-0.903 0.903v2.567c0 0.499 0.404 0.903 0.903 0.903z"></path>
<path fill="#333" d="M29.696 43.887c0.499 0 0.903-0.404 0.903-0.903v-1.24c0-0.499-0.404-0.903-0.903-0.903s-0.903 0.404-0.903 0.903v1.24c0 0.499 0.404 0.903 0.903 0.903z"></path>
<path fill="#333" d="M32.937 32.613c0.499 0 0.903-0.404 0.903-0.903v-3.823c0-0.499-0.404-0.903-0.903-0.903s-0.903 0.404-0.903 0.903v3.823c0 0.499 0.404 0.903 0.903 0.903z"></path>
<path fill="#333" d="M32.847 39.246c0.499 0 0.903-0.404 0.903-0.903v-2.567c0-0.499-0.404-0.903-0.903-0.903s-0.903 0.404-0.903 0.903v2.567c0 0.499 0.404 0.903 0.903 0.903z"></path>
<path fill="#333" d="M32.847 43.887c0.499 0 0.903-0.404 0.903-0.903v-1.24c0-0.499-0.404-0.903-0.903-0.903s-0.903 0.404-0.903 0.903v1.24c0 0.499 0.404 0.903 0.903 0.903z"></path>
<path fill="#333" d="M26.71 59.696c0 0.499 0.404 0.903 0.903 0.903h7.13c0.499 0 0.903-0.404 0.903-0.903s-0.404-0.903-0.903-0.903h-7.13c-0.499 0-0.903 0.404-0.903 0.903z"></path>
<path fill="#333" d="M37.043 61.849h-11.727c-0.499 0-0.903 0.404-0.903 0.903s0.404 0.903 0.903 0.903h11.727c0.499 0 0.903-0.404 0.903-0.903s-0.404-0.903-0.903-0.903z"></path>
<path fill="#333" d="M6.98 38.837c-0.499 0-0.903 0.404-0.903 0.903v3.823c0 0.499 0.404 0.903 0.903 0.903s0.903-0.404 0.903-0.903v-3.823c0-0.499-0.404-0.903-0.903-0.903z"></path>
<path fill="#333" d="M6.89 46.726c-0.499 0-0.903 0.404-0.903 0.903v2.567c0 0.499 0.404 0.903 0.903 0.903s0.903-0.404 0.903-0.903v-2.567c0-0.499-0.404-0.903-0.903-0.903z"></path>
<path fill="#333" d="M6.89 52.694c-0.499 0-0.903 0.404-0.903 0.903v1.243c0 0.499 0.404 0.903 0.903 0.903s0.903-0.404 0.903-0.903v-1.243c0-0.499-0.404-0.903-0.903-0.903z"></path>
<path fill="#333" d="M10.131 38.837c-0.499 0-0.903 0.404-0.903 0.903v3.823c0 0.499 0.404 0.903 0.903 0.903s0.903-0.404 0.903-0.903v-3.823c0-0.499-0.404-0.903-0.903-0.903z"></path>
<path fill="#333" d="M10.039 46.726c-0.499 0-0.903 0.404-0.903 0.903v2.567c0 0.499 0.404 0.903 0.903 0.903s0.903-0.404 0.903-0.903v-2.567c0-0.499-0.404-0.903-0.903-0.903z"></path>
<path fill="#333" d="M10.039 52.694c-0.499 0-0.903 0.404-0.903 0.903v1.243c0 0.499 0.404 0.903 0.903 0.903s0.903-0.404 0.903-0.903v-1.243c0-0.499-0.404-0.903-0.903-0.903z"></path>
<path fill="#333" d="M19.134 38.837c-0.499 0-0.903 0.404-0.903 0.903v3.823c0 0.499 0.404 0.903 0.903 0.903s0.903-0.404 0.903-0.903v-3.823c0-0.499-0.404-0.903-0.903-0.903z"></path>
<path fill="#333" d="M19.044 46.726c-0.499 0-0.903 0.404-0.903 0.903v2.567c0 0.499 0.404 0.903 0.903 0.903s0.903-0.404 0.903-0.903v-2.567c0-0.499-0.404-0.903-0.903-0.903z"></path>
<path fill="#333" d="M19.044 52.694c-0.499 0-0.903 0.404-0.903 0.903v1.243c0 0.499 0.404 0.903 0.903 0.903s0.903-0.404 0.903-0.903v-1.243c0-0.499-0.404-0.903-0.903-0.903z"></path>
<path fill="#333" d="M22.286 38.837c-0.499 0-0.903 0.404-0.903 0.903v3.823c0 0.499 0.404 0.903 0.903 0.903s0.903-0.404 0.903-0.903v-3.823c0-0.499-0.404-0.903-0.903-0.903z"></path>
<path fill="#333" d="M22.193 46.726c-0.499 0-0.903 0.404-0.903 0.903v2.567c0 0.499 0.404 0.903 0.903 0.903s0.903-0.404 0.903-0.903v-2.567c0-0.499-0.404-0.903-0.903-0.903z"></path>
<path fill="#333" d="M22.193 52.694c-0.499 0-0.903 0.404-0.903 0.903v1.243c0 0.499 0.404 0.903 0.903 0.903s0.903-0.404 0.903-0.903v-1.243c0-0.499-0.404-0.903-0.903-0.903z"></path>
<path fill="#333" d="M15.801 36.249c-0.499 0-0.903 0.404-0.903 0.903v19.014c0 0.499 0.404 0.903 0.903 0.903s0.903-0.404 0.903-0.903v-19.014c0-0.499-0.404-0.903-0.903-0.903z"></path>
<path fill="#333" d="M57.020 44.466c0.499 0 0.903-0.404 0.903-0.903v-3.823c0-0.499-0.404-0.903-0.903-0.903s-0.903 0.404-0.903 0.903v3.823c0 0.499 0.404 0.903 0.903 0.903z"></path>
<path fill="#333" d="M57.11 46.726c-0.499 0-0.903 0.404-0.903 0.903v2.567c0 0.499 0.404 0.903 0.903 0.903s0.903-0.404 0.903-0.903v-2.567c0-0.499-0.404-0.903-0.903-0.903z"></path>
<path fill="#333" d="M57.11 52.694c-0.499 0-0.903 0.404-0.903 0.903v1.243c0 0.499 0.404 0.903 0.903 0.903s0.903-0.404 0.903-0.903v-1.243c0-0.499-0.404-0.903-0.903-0.903z"></path>
<path fill="#333" d="M53.869 44.466c0.499 0 0.903-0.404 0.903-0.903v-3.823c0-0.499-0.404-0.903-0.903-0.903s-0.903 0.404-0.903 0.903v3.823c0 0.499 0.404 0.903 0.903 0.903z"></path>
<path fill="#333" d="M53.959 46.726c-0.499 0-0.903 0.404-0.903 0.903v2.567c0 0.499 0.404 0.903 0.903 0.903s0.903-0.404 0.903-0.903v-2.567c0-0.499-0.404-0.903-0.903-0.903z"></path>
<path fill="#333" d="M53.959 52.694c-0.499 0-0.903 0.404-0.903 0.903v1.243c0 0.499 0.404 0.903 0.903 0.903s0.903-0.404 0.903-0.903v-1.243c0-0.499-0.404-0.903-0.903-0.903z"></path>
<path fill="#333" d="M44.866 44.466c0.499 0 0.903-0.404 0.903-0.903v-3.823c0-0.499-0.404-0.903-0.903-0.903s-0.903 0.404-0.903 0.903v3.823c0 0.499 0.404 0.903 0.903 0.903z"></path>
<path fill="#333" d="M44.956 46.726c-0.499 0-0.903 0.404-0.903 0.903v2.567c0 0.499 0.404 0.903 0.903 0.903s0.903-0.404 0.903-0.903v-2.567c0-0.499-0.404-0.903-0.903-0.903z"></path>
<path fill="#333" d="M44.956 52.694c-0.499 0-0.903 0.404-0.903 0.903v1.243c0 0.499 0.404 0.903 0.903 0.903s0.903-0.404 0.903-0.903v-1.243c0-0.499-0.404-0.903-0.903-0.903z"></path>
<path fill="#333" d="M41.714 44.466c0.499 0 0.903-0.404 0.903-0.903v-3.823c0-0.499-0.404-0.903-0.903-0.903s-0.903 0.404-0.903 0.903v3.823c0 0.499 0.404 0.903 0.903 0.903z"></path>
<path fill="#333" d="M41.806 46.726c-0.499 0-0.903 0.404-0.903 0.903v2.567c0 0.499 0.404 0.903 0.903 0.903s0.903-0.404 0.903-0.903v-2.567c0-0.499-0.404-0.903-0.903-0.903z"></path>
<path fill="#333" d="M41.806 52.694c-0.499 0-0.903 0.404-0.903 0.903v1.243c0 0.499 0.404 0.903 0.903 0.903s0.903-0.404 0.903-0.903v-1.243c0-0.499-0.404-0.903-0.903-0.903z"></path>
<path fill="#333" d="M48.199 36.249c-0.499 0-0.903 0.404-0.903 0.903v19.014c0 0.499 0.404 0.903 0.903 0.903s0.903-0.404 0.903-0.903v-19.014c0-0.499-0.404-0.903-0.903-0.903z"></path>
<path fill="#333" d="M63.097 34.259h-0.749v-1.086c0-0.346-0.196-0.644-0.48-0.796l-0.061-4.4c-0.007-0.494-0.409-0.89-0.903-0.89h-1.65c-0.079 0-0.153 0.013-0.226 0.031l-2.284-4.316c-0.116-0.22-0.316-0.377-0.547-0.444h0.384c0.499 0 0.903-0.404 0.903-0.903s-0.404-0.903-0.903-0.903h-2.874c-0.499 0-0.903 0.404-0.903 0.903s0.404 0.903 0.903 0.903h0.636c-0.231 0.067-0.431 0.226-0.547 0.444l-2.267 4.284h-7.136l-0.043-0.081c-0.156-0.297-0.464-0.484-0.8-0.484v0c-0.336 0-0.644 0.187-0.8 0.484l-0.043 0.081h-4.973c-0.167 0-0.323 0.049-0.457 0.129v-11.509c0-0.12-0.024-0.234-0.067-0.339 0.42-0.077 0.739-0.444 0.739-0.886 0-0.499-0.404-0.903-0.903-0.903h-1.076l-3.689-9.074v-3.257c0-0.499-0.404-0.903-0.903-0.903s-0.903 0.404-0.903 0.903v3.256l-3.686 9.074h-1.16c-0.499 0-0.903 0.404-0.903 0.903 0 0.416 0.283 0.763 0.666 0.867v0.167c-0.013 0.061-0.021 0.126-0.021 0.191v11.38h-4.079l-0.043-0.081c-0.156-0.299-0.464-0.484-0.8-0.484v0c-0.336 0-0.644 0.187-0.8 0.484l-0.043 0.081h-6.74c-0.127 0-0.247 0.027-0.357 0.074l-2.306-4.359c-0.116-0.22-0.316-0.377-0.547-0.444h0.637c0.499 0 0.903-0.404 0.903-0.903s-0.404-0.903-0.903-0.903h-2.874c-0.499 0-0.903 0.404-0.903 0.903s0.404 0.903 0.903 0.903h0.384c-0.231 0.067-0.431 0.226-0.547 0.444l-2.267 4.284h-1.893c-0.494 0-0.896 0.397-0.903 0.89l-0.061 4.4c-0.284 0.151-0.48 0.45-0.48 0.796v1.086h-0.75c-0.499 0-0.903 0.404-0.903 0.903s0.404 0.903 0.903 0.903h1v20.899c0 0.499 0.404 0.903 0.903 0.903s0.903-0.404 0.903-0.903v-20.899h21.663v20.899c0 0.499 0.404 0.903 0.903 0.903s0.903-0.404 0.903-0.903v-9.873h8.296v9.873c0 0.499 0.404 0.903 0.903 0.903 0.026 0 0.050-0.006 0.076-0.007 0.016 0 0.031 0.004 0.047 0.004 0.499 0 0.903-0.404 0.903-0.903v-20.984c0.117 0.056 0.247 0.090 0.386 0.090h22.506v20.899c0 0.499 0.404 0.903 0.903 0.903s0.903-0.404 0.903-0.903v-20.899h0.999c0.499 0 0.903-0.404 0.903-0.903s-0.404-0.903-0.903-0.903zM3.987 28.893h0.046l-0.047 0.090v-0.090zM14.033 34.15h-2.896v-3.263c0-0.499-0.404-0.903-0.903-0.903s-0.903 0.404-0.903 0.903v3.263h-0.987v-3.263c0-0.499-0.404-0.903-0.903-0.903s-0.903 0.404-0.903 0.903v3.263h-2.624l0.017-1.203 4.669-8.82h0.264l5.010 9.467c0.043 0.081 0.097 0.154 0.16 0.217v0.339zM18.171 29.827c-0.056-0.011-0.113-0.017-0.173-0.017-0.499 0-0.903 0.404-0.903 0.903v3.437h-1.259v-0.979c0-0.391-0.249-0.724-0.596-0.85l-1.816-3.431h5.234l-0.49 0.936zM21.994 34.15h-3.091v-2.566c0.261-0.050 0.499-0.21 0.631-0.464l0.916-1.749 0.913 1.747c0.133 0.254 0.37 0.411 0.631 0.461v2.569zM25.37 34.15h-1.571v-3.437c0-0.499-0.404-0.903-0.903-0.903-0.059 0-0.116 0.007-0.171 0.017l-0.489-0.936h3.134v5.259zM28.651 16.193v-0.824c0.429-0.071 0.756-0.44 0.756-0.889 0-0.421-0.29-0.773-0.681-0.871l2.653-6.53 2.647 6.513c-0.43 0.070-0.757 0.44-0.757 0.889 0 0.416 0.283 0.763 0.666 0.867v0.574c0 0.209 0.073 0.399 0.191 0.551h-5.523c0.029-0.089 0.049-0.181 0.049-0.28zM35.471 45.284h-8.296v-19.393h8.296v19.393zM35.471 24.086h-8.296v-5.806h8.296v5.806zM60.013 28.893v0.089s-0.046-0.089-0.046-0.089h0.046zM41.276 29.827c-0.056-0.011-0.113-0.017-0.171-0.017-0.499 0-0.903 0.404-0.903 0.903v3.437h-2.466c-0.119 0-0.23 0.024-0.334 0.066v-4.614c0-0.164-0.047-0.316-0.123-0.447v-0.391c0.134 0.080 0.29 0.129 0.457 0.129h4.029l-0.489 0.936zM45.097 34.15h-3.091v-2.566c0.261-0.050 0.499-0.211 0.631-0.466l0.913-1.747 0.916 1.749c0.133 0.254 0.37 0.411 0.631 0.461v2.569zM48.759 32.321c-0.35 0.124-0.6 0.459-0.6 0.851v0.979h-1.256v-3.437c0-0.499-0.404-0.903-0.903-0.903-0.059 0-0.117 0.007-0.173 0.017l-0.49-0.936h5.234l-1.814 3.43zM57.463 34.15v-3.263c0-0.499-0.404-0.903-0.903-0.903s-0.903 0.404-0.903 0.903v3.263h-0.987v-3.263c0-0.499-0.404-0.903-0.903-0.903s-0.903 0.404-0.903 0.903v3.263h-2.899v-0.336c0.064-0.064 0.12-0.137 0.163-0.22l2.63-4.97c0.123-0.124 0.21-0.284 0.244-0.463l2.136-4.036h0.264l4.667 8.82 0.017 1.203h-2.624z"></path>
</svg>
